<svg width="724" height="724" viewBox="0 0 724 724" fill="none" xmlns="http://www.w3.org/2000/svg">
<path d="M0 543C0 564.335 8.4754 584.796 23.5616 599.883C38.6479 614.969 59.1093 623.444 80.4445 623.444H643.556C664.891 623.444 685.352 614.969 700.438 599.883C715.525 584.796 724 564.335 724 543V482.667C724 461.331 715.525 440.87 700.438 425.784C685.352 410.698 664.891 402.222 643.556 402.222H80.4445C59.1093 402.222 38.6479 410.698 23.5616 425.784C8.4754 440.87 0 461.331 0 482.667V543Z" fill="#C1DA77"/>
<path d="M341.889 261.444L361.578 241.333H580.286C643.556 241.333 663.667 281.555 663.667 281.555L724 401.398V502.778H341.889V261.444Z" fill="#C4E468"/>
<path d="M543 402.222H683.778L643.556 321.778C643.556 321.778 623.444 281.556 583.222 281.556H543V402.222Z" fill="#7DC6FA"/>
<path d="M543 703.889C498.572 703.889 462.555 667.873 462.555 623.444C462.555 579.016 498.572 543 543 543C587.428 543 623.444 579.016 623.444 623.444C623.444 667.873 587.428 703.889 543 703.889Z" fill="#292F33"/>
<path d="M543 663.667C520.786 663.667 502.778 645.659 502.778 623.444C502.778 601.23 520.786 583.222 543 583.222C565.214 583.222 583.222 601.23 583.222 623.444C583.222 645.659 565.214 663.667 543 663.667Z" fill="#CCD6DD"/>
<path d="M181 703.889C136.572 703.889 100.555 667.873 100.555 623.444C100.555 579.016 136.572 543 181 543C225.428 543 261.444 579.016 261.444 623.444C261.444 667.873 225.428 703.889 181 703.889Z" fill="#292F33"/>
<path d="M181 663.667C158.786 663.667 140.778 645.659 140.778 623.444C140.778 601.23 158.786 583.222 181 583.222C203.214 583.222 221.222 601.23 221.222 623.444C221.222 645.659 203.214 663.667 181 663.667Z" fill="#CCD6DD"/>
<path d="M80.4445 160.889H382.111C403.446 160.889 423.908 169.364 438.994 184.451C454.08 199.537 462.556 219.998 462.556 241.333V502.778H6.10352e-05V241.333C6.10352e-05 219.998 8.47546 199.537 23.5617 184.451C38.648 169.364 59.1093 160.889 80.4445 160.889Z" fill="#93D888"/>
<path d="M163.5 408.5L206.7 316.7L298.5 273.5L255.3 365.3L163.5 408.5ZM231 328.85C227.778 328.85 224.687 330.13 222.409 332.409C220.13 334.687 218.85 337.778 218.85 341C218.85 344.222 220.13 347.313 222.409 349.591C224.687 351.87 227.778 353.15 231 353.15C234.222 353.15 237.313 351.87 239.591 349.591C241.87 347.313 243.15 344.222 243.15 341C243.15 337.778 241.87 334.687 239.591 332.409C237.313 330.13 234.222 328.85 231 328.85ZM231 206C248.728 206 266.283 209.492 282.662 216.276C299.041 223.061 313.924 233.005 326.459 245.541C338.995 258.076 348.939 272.959 355.724 289.338C362.508 305.717 366 323.272 366 341C366 376.804 351.777 411.142 326.459 436.459C301.142 461.777 266.804 476 231 476C213.272 476 195.717 472.508 179.338 465.724C162.959 458.939 148.076 448.995 135.541 436.459C110.223 411.142 96 376.804 96 341C96 305.196 110.223 270.858 135.541 245.541C160.858 220.223 195.196 206 231 206ZM231 233C202.357 233 174.886 244.379 154.632 264.632C134.379 284.886 123 312.357 123 341C123 369.643 134.379 397.114 154.632 417.368C174.886 437.621 202.357 449 231 449C259.643 449 287.114 437.621 307.368 417.368C327.621 397.114 339 369.643 339 341C339 312.357 327.621 284.886 307.368 264.632C287.114 244.379 259.643 233 231 233Z" fill="white"/>
</svg>
